<?xml version="1.0" encoding="utf-8"?>
<svg version="1.1" id="Calque_1" xmlns="http://www.w3.org/2000/svg" xmlns:xlink="http://www.w3.org/1999/xlink" x="0px" y="0px"
	 viewBox="0 0 372.4 222.1" style="enable-background:new 0 0 372.4 222.1;" xml:space="preserve">
<g fill="#77BE4C">
	<path d="M372.4,158.9c-79-42.9-163.9-5.2-179.5,63.2C192.9,222.1,331.8,202,372.4,158.9"/>
	<path d="M239.6,0L239.6,0L239.6,0L239.6,0c-24.7,9.8-50,42.9-63.2,86.4c-11.4,37.4-11,73.4-1.1,96.6
		c4.4-14.7,8.8-27.2,15.2-39.4c2.8-5.2,6.9-2.7,6.8,1.4c-0.1,3.5-0.9,10.3-4.1,25c-1.1,5-2.4,11.4-3.9,18.8
		c21.8-13.3,42.9-43.5,54.6-81.9C257.2,63.5,254.6,22,239.6,0"/>
	<path d="M163.5,81.4c0.9-3.1,1.9-6,3-9C138.6,39.6,104.6,20,79.1,20.1l0,0l0,0l0,0C73.3,46,86.5,85.6,115,120.9
		c13,16.2,27.6,29.4,42.1,39C152.9,138,154.7,110.1,163.5,81.4z"/>
	<path d="M0,158.9c79-42.9,163.9-5.2,179.5,63.2C179.5,222.1,40.6,202,0,158.9"/>
</g>
</svg>
