<?xml version="1.0" encoding="utf-8"?>
<svg version="1.1"
   xmlns:rdf="http://www.w3.org/1999/02/22-rdf-syntax-ns#"
   xmlns="http://www.w3.org/2000/svg" xmlns:xlink="http://www.w3.org/1999/xlink" x="0px" y="0px" viewBox="0 0 1009 258.3"
   style="enable-background:new 0 0 1009 258.3;" xml:space="preserve">
<style type="text/css">
  .st0{fill:#FFFFFF;}
  .st1{fill:#CCCCCC;}
</style>
<g transform="translate(-93.755 -389.62)">
  <path class="st0" d="M551.9,480c-3.6,0.1-7.1,0.2-7.3,0.5c-0.6,0.6-0.7,86.4,0,87.4c0.3,0.6,10.6,0.8,15.1,0.3
    c0.8-0.1,0.6-88-0.3-88c-1-0.1-2.4-0.1-3.9-0.1C554.3,480,553.1,480,551.9,480L551.9,480z M484.7,487.2l-28.7,0.1
    c-15.8,0-29.2,0.1-29.7,0.1c-1.4,0.1-1.3,8.1,0.1,8.5c0.6,0.2,4.9,0.1,9.4-0.3c4.6-0.4,9-0.5,9.8-0.2c1.2,0.5,1.4,6.8,1.4,36.1
    c0,19.6,0.1,35.9,0.4,36.3s4.1,0.7,8.6,0.6l8.1-0.1l-0.4-29.6c-0.4-30.9,0.2-42.6,2.3-43.4c0.7-0.3,4.8-0.2,9.3,0.2
    c4.4,0.4,8.5,0.4,9.1,0s0.9-2.4,0.7-4.6L484.7,487.2L484.7,487.2z M507.2,511.4c-2,0-4.2,0.3-6.3,0.8c-7.6,1.8-12.8,6-16.3,13.2
    c-2.5,5.2-2.9,7.2-2.9,14.8c0,7.7,0.4,9.6,3.1,15c3.6,7.2,8.8,11.7,15.7,13.6c10.4,2.9,23.8-0.1,27.1-6c2.1-3.9,0.8-4.6-4.3-2.3
    c-5.9,2.7-13.3,2.6-17-0.2c-4-2.9-7.6-10.3-7.6-15.6v-4.4L515,540l16.3-0.3l0.3-3.8C532.8,521.6,521.5,511,507.2,511.4L507.2,511.4
    z M598,511.7c-11.2-0.1-23.6,5.2-22.1,10.9c0.7,2.5,2.2,2.7,5,0.7c3.7-2.6,10-3.8,14-2.7c4.5,1.2,6.9,3.7,7.7,8
    c0.9,4.6-1.9,6.9-11.1,9.1c-4.2,1-9.3,2.7-11.4,3.7c-7.8,3.9-10.7,11.1-7.7,19c2,5.2,3.2,6.5,8.6,8.4c4.5,1.7,12.1,1.1,15.2-1.2
    c1.2-0.8,3.1-2.3,4.3-3.1c2.1-1.5,2.4-1.4,5.3,1.5c3.8,3.8,8.8,4.8,14.3,2.9c4.7-1.7,5.2-3.3,1.6-5.1s-4.3-5.7-3.6-20.9
    c1-20.6-1.7-26.9-12.8-30.1C603.2,512,600.6,511.7,598,511.7L598,511.7z M507.9,516.4c4.5,0,9,8.4,8.2,15.3
    c-0.3,2.7-0.5,2.8-8.4,3.1c-9.3,0.3-9.7-0.1-8.5-7.7C500,521.6,504.3,516.4,507.9,516.4L507.9,516.4z M601.3,539.9
    c2,0.1,2.1,2.4,1.6,9.6c-0.3,5.8-0.9,7.7-2.9,9.8c-3.2,3.4-8.5,3.6-10.8,0.4c-0.9-1.3-1.6-4.3-1.6-6.7c0-5.6,3.6-10,9.9-12.1
    c1.4-0.5,2.5-0.8,3.4-0.9C601,539.9,601.1,539.9,601.3,539.9L601.3,539.9z"/>
  <path class="st0" d="M690.5,487.2h-6.3l-19.7,0.1l-0.1,40.2c-0.1,22.1,0,40.4,0.2,40.7s8.1,0.5,17.7,0.5c20.5,0,24.7-1,30.9-7.2
    c4.3-4.2,6.7-10.3,6.6-16.7c-0.1-7.2-6-14.7-14.4-18.2l-3.6-1.5l5.4-3.3c6.4-4,9.5-8.6,10.2-15.3c0.8-7-2.6-13.4-8.9-16.9
    c-3.4-1.9-4.6-2.4-13.1-2.5C693.9,487.1,692.3,487.2,690.5,487.2L690.5,487.2z M817.5,492c-1,0-4.2,1.1-7.7,2.8l-7.2,3.5v15
    l-3.9,0.3c-3.4,0.3-3.9,0.7-3.9,2.9s0.6,2.7,3.6,3.1l3.6,0.5v19.7c0,22.2,0.8,25.1,7.8,28.8c4.3,2.2,13.1,1.8,17.2-0.8
    c3.4-2.2,2.6-4.2-1.5-3.8c-4.3,0.4-7.1-2.6-8-8.6c-0.9-5.8-0.1-34.3,0.9-35.4c0.4-0.4,2.3-0.6,4.2-0.5c2.1,0.1,4-0.4,4.8-1.3
    c2-2.5-0.5-4.7-5.4-4.7h-4.1l0.4-10.3c0.2-5.6,0-10.6-0.4-11C817.7,492.1,817.6,492,817.5,492L817.5,492z M686.9,493.1
    c1.4,0,3.1,0.2,4.8,0.6c5.9,1.6,8.5,5.7,8.5,13.5c0,6.7-2.5,11.5-7.1,13.9c-3.8,2-10.3,2.1-11,0.3c-0.3-0.7-0.4-7.1-0.2-14.2
    c0.3-12.7,0.3-12.9,2.9-13.8C685.3,493.2,686,493.1,686.9,493.1z M759.2,511.6c-11.2,0.2-21.5,6.3-25.8,16.3
    c-7.8,18.2,0.1,37.3,17.2,41.3c14.1,3.3,27.7-2.3,33.6-13.8c2.7-5.3,3.7-19.2,1.8-26c-1.7-5.9-8.1-13.2-13.5-15.4
    C768.1,512.3,763.6,511.5,759.2,511.6L759.2,511.6z M930.9,511.6c-4.4,0-9,1.7-13.5,5c-4.3,3.1-4.7,3-5.4-1.5c-0.3-1.7-1.2-2-7.3-2
    c-3.8,0-7.2,0.2-7.5,0.5c-0.7,0.7-0.8,53.3-0.1,54.4c0.3,0.6,9.2,0.7,15.2,0.3c0.3,0,0.5-8.9,0.5-19.6c0-18.2,0.2-19.8,2.2-22.5
    c4.5-6.1,11.2-6.5,15.4-1c2,2.7,2.1,4.3,2.1,23v20.1h16.1v-21.5c0-24.3-0.9-28.4-7.4-32.3C937.8,512.6,934.4,511.6,930.9,511.6z
     M860.6,511.8c-11.2-0.1-23.6,5.2-22.1,10.9c0.7,2.5,2.2,2.7,5,0.7c3.7-2.6,10-3.8,14-2.7c4.5,1.2,6.9,3.7,7.7,8
    c0.9,4.6-1.9,6.9-11.1,9.1c-4.2,1-9.3,2.7-11.4,3.7c-7.8,3.9-10.7,11.1-7.7,19c2,5.2,3.2,6.5,8.6,8.4c4.5,1.7,12.1,1.1,15.2-1.2
    c1.2-0.8,3.1-2.3,4.3-3.1c2.1-1.5,2.4-1.4,5.3,1.5c3.8,3.8,8.8,4.8,14.3,2.9c4.7-1.7,5.2-3.3,1.6-5.1s-4.3-5.7-3.6-20.9
    c1-20.6-1.7-26.9-12.8-30.1C865.7,512.1,863.2,511.8,860.6,511.8L860.6,511.8z M1076.7,511.8c-11.2-0.1-23.6,5.2-22.1,10.9
    c0.7,2.5,2.2,2.7,5,0.7c3.7-2.6,10-3.8,14-2.7c4.5,1.2,6.9,3.7,7.7,8c0.9,4.6-1.9,6.9-11.1,9.1c-4.2,1-9.3,2.7-11.4,3.7
    c-7.8,3.9-10.7,11.1-7.7,19c2,5.2,3.2,6.5,8.6,8.4c4.5,1.7,12.1,1.1,15.2-1.2c1.2-0.8,3.1-2.3,4.3-3.1c2.1-1.5,2.4-1.4,5.3,1.5
    c3.8,3.8,8.8,4.8,14.3,2.9c4.7-1.7,5.2-3.3,1.6-5.1s-4.3-5.7-3.6-20.9c1-20.6-1.7-26.9-12.8-30.1
    C1081.9,512.1,1079.3,511.8,1076.7,511.8L1076.7,511.8z M1021.1,512c-5.7,0-7.5,0.6-12.2,3c-14.7,7.5-20,25.3-12.1,40.8
    c3.3,6.5,8.9,11,16.5,13.1c10.5,3,23.8-0.1,26.3-6c0.7-1.6,1-3.2,0.7-3.5s-2.7,0.5-5.4,1.7c-6.5,2.9-12.7,2-17.6-2.3
    c-4.4-3.9-6.1-8.7-6.1-18c-0.1-14.5,5.1-23.3,14-23.3c3.4,0,4.9,0.7,7.7,3.5c1.9,1.9,3.5,4.3,3.5,5.2s0.6,1.6,1.4,1.6
    c2,0,5.4-9.2,4.1-11.2c-1.7-2.8-8.8-4.6-18-4.7C1022.8,512,1021.9,512,1021.1,512L1021.1,512z M969.6,513.2c-3.2,0.1-6,0.2-6.2,0.4
    c-0.7,0.7-0.8,53.3-0.1,54.4c0.3,0.6,9.3,0.7,15.2,0.3c0.3,0,0.5-12.4,0.5-27.4c0-15.1-0.2-27.4-0.5-27.4
    C976.4,513.2,972.8,513.2,969.6,513.2z M759.1,516.6c2.1,0,4.2,0.9,6.2,2.9c3.8,3.8,5.2,9,5.2,19.5c0,12.2-1.6,18.7-5.7,22.8
    c-3.9,3.9-7.3,4.3-11.1,1.4c-4.3-3.4-6-9.4-6-20.7c0-5.6,0.3-11.4,0.7-13.1C750.3,521.3,754.6,516.7,759.1,516.6L759.1,516.6z
     M685.4,529.2c3.7-0.2,9.1,1.7,11.4,4.1c6.7,7.1,5.6,21.4-1.9,26.9c-2.7,2-9.7,3.3-12.1,2.2c-1-0.4-1.3-4.7-1.3-16.5
    c0-15.9,0-15.9,2.4-16.5C684.4,529.3,684.9,529.2,685.4,529.2L685.4,529.2z M863.8,540c2,0.1,2.1,2.4,1.6,9.6
    c-0.3,5.8-0.9,7.7-2.9,9.8c-3.2,3.4-8.5,3.6-10.8,0.4c-0.9-1.3-1.6-4.3-1.6-6.7c0-5.6,3.6-10,9.9-12.1c1.4-0.5,2.5-0.8,3.4-0.9
    C863.5,540.1,863.7,540,863.8,540L863.8,540z M1080,540c2,0.1,2.1,2.4,1.6,9.6c-0.3,5.8-0.9,7.7-2.9,9.8c-3.2,3.4-8.5,3.6-10.8,0.4
    c-0.9-1.3-1.6-4.3-1.6-6.7c0-5.6,3.6-10,9.9-12.1c1.4-0.5,2.5-0.8,3.4-0.9C1079.7,540.1,1079.8,540,1080,540z"/>
  <path class="st0" d="M979.7,496.8c0,4.9-4.1,8.9-9.1,8.9s-9.1-4-9.1-8.9s4.1-8.9,9.1-8.9S979.7,491.9,979.7,496.8z"/>
</g>
<g transform="translate(-93.755 -389.62)">
  <path class="st0" d="M342.1,389.6h-0.6c-6,0.4-17.5,6.9-33.8,19.1c-10.6,7.9-19.5,15.6-26,22.3c-5.7,5.9-8.4,11.3-15.5,31
    c-6,16.6-9.6,24.3-12.8,27.5c-4.8,4.8-7.1,2.9-15.2-13.1c-6.4-12.7-10.2-18.6-15.2-23.9c-4.7-5-7.7-7.1-15.6-11
    c-11.4-5.7-27.5-10.4-34.1-9.9l-2.9,0.2l0.1,15.1c0.1,22.9,1.7,28.7,12.8,46.1c8.5,13.3,14.4,23.9,16.3,29.3
    c8.8,25,11.5,28.9,24.6,35.2c10.9,5.3,16.1,7.2,19.7,7.2c1.2,0,2.1,0,2.8-0.2h3.5v2.7h0.7c-0.8,3.5,0.5,11.7,2.3,15.2
    c2.8,5.4,6.4,7.7,21.5,13.9c25,10.3,54.8,17.2,80.7,18.8c22,1.3,44.7-2.3,46.6-7.4c0.2-1.4-0.1-3.6-0.2-4.2c0-0.2-0.8-2.5-1.8-5
    c-4-9.9-10.7-19.4-20.3-28.7c-12.8-12.4-25.2-19.4-47.7-27.3c-10.9-3.8-12.4-4.5-13-5.9c-0.6-1.6,4.5-11.6,16.1-31.4
    c12.2-20.8,16.3-28.9,17.2-33.7c1.2-6.7,1.5-23.5,0.8-37.8c-1.5-27.6-4.6-42.6-9-44.1H342.1L342.1,389.6z M337,587.3h0.6v0.2
    C337.4,587.5,337.2,587.4,337,587.3z"/>
</g>
<g transform="translate(-93.755 -389.62)">
  <path class="st1" d="M120.6,632.3c-6.6-0.9-14.7-2.8-15.5-3.6c-0.5-0.5,0-0.6,1.4-0.3c13.1,2.6,29.9,2.4,45-0.7
    c14.4-2.9,34.9-9.5,37.1-12c0.2-0.2,3.1-1.9,6.5-3.7c20-10.7,37.1-25.5,47.1-40.9c2.4-3.7,4.8-6.9,5.2-7
    c1.4-0.4-19.4-37.5-41.8-74.8c-11.9-19.8-23-38.6-24.7-41.6c-1.6-3-4.3-7.4-6-9.8c-3.2-4.5-3.1-6,0.2-3.5c2.7,2,2.9,2.3,9.8,12.6
    c11.3,16.7,38.5,61.9,57.8,96.2c4.3,7.6,7.8,13.8,7.9,14c0.3,0.3,7.8-11.7,21-33.2c5.8-9.5,13.9-22.7,18.1-29.4
    c5.6-9.1,10.8-19.1,20.2-38.8c7-14.6,14.9-31.3,17.6-37s5.1-10.3,5.2-10.2c0.4,0.4-13.4,34.2-23.1,56.4
    c-6.9,15.7-9.4,20.6-31.8,59.7c-11.4,20-20.6,36.4-20.5,36.5s29.6,9,65.5,19.8c82.2,24.8,79.4,23.9,79.4,24.8
    c0,1.8-1.5,2.3-3.8,1.4c-6.4-2.7-140-41.5-144-41.9c-2.9-0.3-3.4,0.5-3.4,4.9c0,6.6-19.3,26.5-36.7,37.8
    c-7.4,4.8-24.3,13.6-30.6,15.8c-6,2.2-21.7,6.1-29.7,7.5C146.5,632.6,126.9,633.2,120.6,632.3L120.6,632.3z"/>
</g>
<g transform="translate(-93.755 -389.62)">
  <g transform="translate(22.857 -27.714)">
    <path class="st0" d="M253.9,675.4c-23-1.6-36.7-3-53.6-5.8C138.2,659.4,94,639.4,77.2,614.1c-6.3-9.5-7.9-19.8-4.8-29.8
      c4.3-13.7,20.9-29,43-39.7c7.7-3.8,12.3-5.5,10.9-4.2c-0.3,0.3-3.7,2.4-7.5,4.5c-17.1,9.8-27.5,20.1-32.5,32.1
      c-2.4,5.7-2.9,15-1.2,20.8c5,17.4,21.5,32,50.8,44.9c68.2,30.2,183.8,36.4,271.1,14.4c5.9-1.5,10.8-2.6,10.9-2.5
      c0.5,0.5-12.6,4.7-22.5,7.3c-23.3,6-44,9.5-71.4,12.1C313.3,675.1,263.5,676,253.9,675.4z"/>
    <path class="st0" d="M427.4,667.3c-4.1-1.4-6.3-3.2-9-7.3c-4.5-6.9-1.1-17.3,7.1-21.3c3.3-1.6,4.4-1.8,8.1-1.5
      c9.8,0.9,16.2,10.2,13.6,19.7c-1.2,4.6-6.7,9.7-11.6,10.8C431.1,668.8,431.8,668.8,427.4,667.3z"/>
  </g>
</g>
</svg>
