<svg xmlns="http://www.w3.org/2000/svg" viewBox="0 0 300 122.02"><defs><style>.cls-1{fill:#918a6f;}.cls-2{fill:#e16e38;}.cls-3{fill:#c3d45d;}.cls-4{fill:#919f54;}</style></defs><title>logo-horiz</title><g id="layer1"><path id="path3296" class="cls-1" d="M199.83,23.38a12.9,12.9,0,0,0-2.28.14c-.19.19-.2,27.13,0,27.45a20.91,20.91,0,0,0,4.75.09c.27,0,.18-27.62-.08-27.64s-.75,0-1.24,0h-1.14Zm-21.08,2.25-9,0c-5,0-9.16,0-9.33,0-.44,0-.41,2.53,0,2.68a18.14,18.14,0,0,0,3-.1,14.76,14.76,0,0,1,3.06-.06c.37.14.45,2.13.43,11.34,0,6.14,0,11.27.12,11.4a8.51,8.51,0,0,0,2.7.2l2.55,0-.12-9.28c-.13-9.7.07-13.37.71-13.62a15.15,15.15,0,0,1,2.91.06,11,11,0,0,0,2.86,0c.18-.11.29-.76.23-1.43l-.1-1.23Zm7.05,7.6a9.45,9.45,0,0,0-2,.26,7.26,7.26,0,0,0-5.12,4.13,8.15,8.15,0,0,0-.92,4.65,7.93,7.93,0,0,0,1,4.7,7.74,7.74,0,0,0,4.94,4.27c3.25.92,7.48,0,8.51-1.89.67-1.22.26-1.44-1.35-.72-1.85.83-4.17.81-5.35-.05a7,7,0,0,1-2.37-4.91V42.29l5.11-.09,5.11-.09.1-1.2c.37-4.47-3.16-7.79-7.66-7.68Zm28.53.09c-3.52,0-7.41,1.63-7,3.41.21.79.68.85,1.58.21a6,6,0,0,1,4.4-.83,3,3,0,0,1,2.42,2.5c.29,1.43-.6,2.16-3.48,2.85a21.59,21.59,0,0,0-3.58,1.18,4.49,4.49,0,0,0-2.4,6A3.52,3.52,0,0,0,209,51.24a6.26,6.26,0,0,0,4.78-.37l1.36-1c.65-.47.75-.45,1.65.46a4.07,4.07,0,0,0,4.47.91c1.48-.52,1.65-1,.51-1.61s-1.34-1.8-1.12-6.56c.31-6.45-.54-8.44-4-9.46A8.7,8.7,0,0,0,214.33,33.32ZM186,34.8c1.4,0,2.82,2.64,2.57,4.81-.1.85-.16.87-2.63,1-2.9.11-3,0-2.68-2.42.25-1.69,1.61-3.35,2.74-3.35Zm29.32,7.38c.64,0,.64.76.52,3-.1,1.82-.27,2.4-.9,3.07a2.23,2.23,0,0,1-3.4.11,4.39,4.39,0,0,1-.51-2.09c0-1.76,1.12-3.13,3.1-3.8a5.22,5.22,0,0,1,1.06-.28h.13Z"/><path id="path3294" class="cls-1" d="M170.54,63.86h-2l-6.17,0,0,12.62c0,6.94,0,12.69.05,12.78a50.06,50.06,0,0,0,5.56.15c6.42,0,7.75-.31,9.71-2.27a7.34,7.34,0,0,0,2.08-5.25c0-2.27-1.89-4.62-4.54-5.7l-1.14-.47,1.68-1a6,6,0,0,0,3.22-4.8,5.29,5.29,0,0,0-2.79-5.3c-1.07-.59-1.45-.76-4.11-.78h-1.53Zm39.86,1.53a8.39,8.39,0,0,0-2.41.87l-2.26,1.1v4.71l-1.22.1c-1.06.09-1.22.21-1.22.91s.18.84,1.14,1l1.14.16v6.17c0,7,.25,7.88,2.45,9a6.61,6.61,0,0,0,5.39-.26c1.06-.69.81-1.32-.47-1.2s-2.23-.81-2.52-2.7,0-10.77.29-11.1A2.46,2.46,0,0,1,212,74a1.89,1.89,0,0,0,1.49-.42c.64-.78-.15-1.47-1.68-1.47h-1.3l.11-3.23a13.58,13.58,0,0,0-.13-3.46.16.16,0,0,0-.1,0Zm-41,.32a5.37,5.37,0,0,1,1.51.2c1.84.5,2.66,1.8,2.66,4.24,0,2.1-.77,3.61-2.23,4.36-1.19.61-3.24.66-3.46.08a34.29,34.29,0,0,1-.07-4.45c.09-4,.1-4,.9-4.32A2.32,2.32,0,0,1,169.41,65.71Zm22.7,5.81a8.83,8.83,0,0,0-8.09,5.1c-2.46,5.73,0,11.71,5.39,13,4.43,1,8.69-.71,10.56-4.33.86-1.66,1.16-6,.57-8.15a8.55,8.55,0,0,0-4.24-4.83A10.65,10.65,0,0,0,192.1,71.53Zm53.93,0a7.33,7.33,0,0,0-4.24,1.56c-1.35,1-1.47,1-1.7-.48-.09-.54-.38-.63-2.29-.63a9.39,9.39,0,0,0-2.36.17c-.21.21-.25,16.74,0,17.08a20.2,20.2,0,0,0,4.76.08,59.12,59.12,0,0,0,.16-6.16c0-5.72,0-6.21.68-7.06,1.42-1.92,3.52-2.06,4.82-.3.63.84.66,1.34.65,7.21v6.3h5.06V82.58c0-7.62-.3-8.9-2.31-10.13a5.93,5.93,0,0,0-3.16-.91Zm-22.09.06c-3.52,0-7.41,1.63-7,3.41.21.79.68.85,1.58.21a6,6,0,0,1,4.4-.83,3,3,0,0,1,2.42,2.5c.29,1.43-.6,2.16-3.48,2.85a21.58,21.58,0,0,0-3.58,1.18,4.49,4.49,0,0,0-2.4,6,3.52,3.52,0,0,0,2.69,2.65,6.26,6.26,0,0,0,4.78-.37l1.36-1c.65-.47.75-.45,1.65.46a4.07,4.07,0,0,0,4.47.91c1.48-.52,1.65-1,.51-1.61s-1.34-1.8-1.12-6.56c.31-6.45-.54-8.44-4-9.46a8.7,8.7,0,0,0-2.32-.3Zm67.86,0c-3.52,0-7.41,1.63-7,3.41.21.79.68.85,1.58.21a6,6,0,0,1,4.4-.83,3,3,0,0,1,2.42,2.5c.29,1.43-.6,2.16-3.48,2.85a21.58,21.58,0,0,0-3.58,1.18,4.49,4.49,0,0,0-2.4,6,3.52,3.52,0,0,0,2.69,2.65,6.26,6.26,0,0,0,4.78-.37l1.36-1c.65-.47.75-.45,1.65.46a4.07,4.07,0,0,0,4.47.91c1.48-.52,1.65-1,.51-1.61s-1.34-1.8-1.12-6.56c.31-6.45-.54-8.44-4-9.46A8.7,8.7,0,0,0,291.8,71.6Zm-17.46.05a6.68,6.68,0,0,0-3.85.94c-4.61,2.36-6.27,7.94-3.8,12.81a8,8,0,0,0,5.16,4.11c3.3.93,7.48,0,8.25-1.89.21-.51.32-1,.23-1.09a4.33,4.33,0,0,0-1.7.53,4.93,4.93,0,0,1-5.53-.72c-1.38-1.22-1.9-2.74-1.93-5.64,0-4.57,1.61-7.31,4.4-7.31A2.83,2.83,0,0,1,278,74.51a3.86,3.86,0,0,1,1.11,1.62.48.48,0,0,0,.44.52c.63,0,1.68-2.89,1.29-3.52-.55-.87-2.77-1.45-5.65-1.48ZM258.15,72a9.66,9.66,0,0,0-1.95.13c-.21.21-.25,16.74,0,17.08a20.22,20.22,0,0,0,4.76.08c.09,0,.16-3.88.16-8.61s-.07-8.61-.16-8.61C260.31,72,259.16,72,258.15,72ZM192.09,73.1A2.7,2.7,0,0,1,194,74c1.19,1.19,1.63,2.82,1.63,6.12,0,3.82-.51,5.87-1.8,7.15s-2.29,1.36-3.48.43c-1.34-1.06-1.89-2.95-1.9-6.5a27.68,27.68,0,0,1,.22-4.1C189.32,74.58,190.66,73.12,192.09,73.1Zm-23.13,4a5.48,5.48,0,0,1,3.57,1.3c2.09,2.23,1.77,6.71-.6,8.44a5.53,5.53,0,0,1-3.78.69c-.3-.13-.41-1.49-.41-5.17,0-5,0-5,.76-5.19A2.3,2.3,0,0,1,169,77.06Zm56,3.4c.64,0,.64.76.52,3-.1,1.82-.27,2.4-.9,3.07a2.23,2.23,0,0,1-3.4.11,4.39,4.39,0,0,1-.51-2.09c0-1.76,1.12-3.13,3.1-3.8a5.22,5.22,0,0,1,1.06-.28H225Zm67.86,0c.64,0,.64.76.52,3-.1,1.82-.27,2.4-.9,3.07a2.23,2.23,0,0,1-3.4.11,4.39,4.39,0,0,1-.51-2.09c0-1.76,1.12-3.13,3.1-3.8a5.22,5.22,0,0,1,1.06-.28h.13Z"/><path id="path3300" class="cls-2" d="M261.32,66.89a2.84,2.84,0,1,1-2.84-2.8A2.82,2.82,0,0,1,261.32,66.89Z"/></g><g id="layer3"><path id="path3058" class="cls-3" d="M117.34,0h-.29c-2.82.18-8.27,3.26-16,9A107.12,107.12,0,0,0,88.78,19.58c-2.71,2.79-4,5.33-7.34,14.63-2.82,7.82-4.52,11.46-6,13C73.11,49.49,72,48.56,68.22,41c-3-6-4.82-8.8-7.19-11.29s-3.63-3.33-7.39-5.22c-5.4-2.7-13-4.92-16.11-4.7l-1.39.1,0,7.14c0,10.82.8,13.54,6.07,21.79,4,6.29,6.79,11.29,7.69,13.85,4.14,11.81,5.43,13.65,11.64,16.65,5.16,2.49,7.61,3.39,9.28,3.39a4.92,4.92,0,0,0,1.32-.11h1.65v1.28h.33a14.9,14.9,0,0,0,1.08,7.2c1.31,2.54,3,3.65,10.14,6.57a125,125,0,0,0,38.11,8.87c10.41.63,21.1-1.06,22-3.49a7.6,7.6,0,0,0-.11-2c0-.1-.39-1.16-.86-2.34a39.49,39.49,0,0,0-9.58-13.57c-6-5.84-11.88-9.17-22.55-12.9-5.14-1.79-5.87-2.13-6.12-2.77s2.11-5.48,7.59-14.83c5.77-9.85,7.72-13.67,8.13-15.91.57-3.16.73-11.09.37-17.84C121.65,7.88,120.2.78,118.1.11a2.56,2.56,0,0,0-.75-.11Zm-2.4,93.42h.27v.08Z"/></g><g id="layer2"><path id="path3977" class="cls-4" d="M12.71,114.68c-3.14-.44-6.94-1.31-7.31-1.68-.22-.22,0-.26.65-.13a56.86,56.86,0,0,0,21.27-.33c6.78-1.37,16.5-4.51,17.53-5.66.09-.1,1.48-.88,3.08-1.74,9.45-5,17.54-12.05,22.27-19.33a19.83,19.83,0,0,1,2.45-3.32c.65-.19-9.15-17.74-19.72-35.34C47.3,37.78,42.06,28.94,41.28,27.51s-2-3.5-2.81-4.61c-1.49-2.13-1.45-2.84.1-1.65,1.25,1,1.35,1.09,4.62,5.93,5.35,7.9,18.17,29.26,27.29,45.45,2,3.57,3.7,6.54,3.75,6.59s3.7-5.53,9.91-15.68c2.73-4.46,6.57-10.72,8.53-13.91a188.25,188.25,0,0,0,9.54-18.34l8.32-17.48A47.48,47.48,0,0,1,113,9c.2.2-6.34,16.17-10.89,26.62-3.24,7.43-4.45,9.71-15,28.2-5.39,9.44-9.75,17.2-9.7,17.24s14,4.26,30.94,9.38c38.84,11.71,37.5,11.29,37.5,11.73,0,.84-.7,1.09-1.78.64C141,101.56,77.94,83.21,76,83c-1.35-.12-1.61.24-1.62,2.32,0,3.13-9.14,12.51-17.35,17.83a108.86,108.86,0,0,1-14.44,7.49,113.13,113.13,0,0,1-14,3.54,83.73,83.73,0,0,1-15.87.47Z"/></g><g id="layer5"><path id="path3195" class="cls-1" d="M86.47,121.92a242.78,242.78,0,0,1-25.32-2.75C31.82,114.34,10.92,104.92,3,92.94A16.08,16.08,0,0,1,.74,78.87c2-6.46,9.87-13.68,20.32-18.75,3.66-1.78,5.82-2.61,5.16-2-.16.15-1.75,1.11-3.54,2.14-8.1,4.65-13,9.47-15.34,15.18a17.26,17.26,0,0,0-.57,9.83c2.37,8.21,10.15,15.09,24,21.23,32.24,14.28,86.8,17.18,128,6.81,2.78-.7,11.08-2.25,11.17-2.26,3.51-.31-11.93,3.32-16.64,4.53a205.2,205.2,0,0,1-33.74,5.71c-5.05.48-28.58.9-33.12.59Z"/><path id="path3193" class="cls-2" d="M168.43,118.11a7.42,7.42,0,0,1-4.25-3.44c-2.14-3.26-.5-8.19,3.35-10.07a5.5,5.5,0,0,1,3.81-.71,7.35,7.35,0,0,1,6.44,9.32,8.34,8.34,0,0,1-5.47,5.12C170.21,118.81,170.51,118.83,168.43,118.11Z"/></g></svg>
