<?xml version="1.0" encoding="utf-8"?>
<svg version="1.1" xmlns="http://www.w3.org/2000/svg" xmlns:xlink="http://www.w3.org/1999/xlink" x="0px" y="0px"
   viewBox="0 0 46 46" style="enable-background:new 0 0 46 46;" xml:space="preserve">
<style type="text/css">
  .st0{fill:#E9F6F8;}
  .st1{fill:none;}
  .st2{fill:#009FB8;}
</style>
<circle class="st0" cx="23" cy="23" r="23"/>
<path class="st1" d="M11,11h24v24H11V11z"/>
<path class="st1" d="M11,11h24v24H11V11z"/>
<path class="st2" d="M31.6,31.9c-0.1,0.2-0.3,0.4-0.5,0.5l-6.9,2c-0.4,0.2-0.9,0.1-1.3-0.2c-3.2-2.2-6.9-3.5-10.7-3.8
  c-0.6,0-0.3-2.4,1.4-2.4c1.2,0,4.7,0.9,5.2,0.5s0.5-2.3-0.9-5.7l0,0L15.3,16c-0.3-0.6,0-1.4,0.6-1.7c0.6-0.3,1.4,0,1.7,0.6
  c0,0,0,0.1,0.1,0.2l2.4,6c0.2,0.6,0.5,0.8,0.8,0.7s0.3-0.3,0.2-0.9l-2.5-7.3c-0.2-0.7,0.2-1.4,0.9-1.6c0.6-0.2,1.3,0.1,1.5,0.7
  l2.4,7c0.2,0.6,0.4,0.9,0.8,0.8s0.2-0.4,0.1-0.7l-1.7-6.6c-0.2-0.7,0.1-1.4,0.8-1.6c0.7-0.2,1.4,0.1,1.6,0.8c0,0.1,0,0.2,0.1,0.2
  l1.5,6.1c0.2,0.9,0.4,1.2,0.8,1.1s0.4-0.4,0.3-0.6l-1.1-5.3c-0.1-0.6,0.3-1.2,0.9-1.4c0.6-0.1,1.2,0.3,1.4,0.9l1.2,5.7l0,0l0.7,3.4
  c0.1,0.6,0.3,1.2,0.5,1.9C32.1,26.8,32.3,29.4,31.6,31.9z"/>
</svg>
