<?xml version="1.0" encoding="utf-8"?>
<!-- Generator: Adobe Illustrator 20.1.0, SVG Export Plug-In . SVG Version: 6.00 Build 0)  -->
<svg version="1.0" id="Calque_1" xmlns="http://www.w3.org/2000/svg" xmlns:xlink="http://www.w3.org/1999/xlink" x="0px" y="0px"
	 viewBox="0 0 20 20" style="enable-background:new 0 0 20 20;" xml:space="preserve">
<style type="text/css">
	.st0{fill:none;}
</style>
<path class="st0" d="M0,0h20v20H0V0z"/>
<g>
	<path d="M19,14.5c0,0.9-0.8,1.7-1.7,1.7H2.7c-0.9,0-1.7-0.8-1.7-1.7V4.9h2.2V3.8H19V14.5z M3.2,6.1H2.1v8.4c0,0.3,0.3,0.6,0.6,0.6
		s0.6-0.3,0.6-0.6V6.1z M17.9,4.9H4.4v9.6c0,0.2,0,0.4-0.1,0.6h13c0.3,0,0.6-0.3,0.6-0.6V4.9z M11.1,11.7H5.5V6.1h5.6V11.7z
		 M11.1,13.9H5.5v-1.1h5.6V13.9z M6.6,7.2v3.4H10V7.2H6.6z M16.8,7.2h-4.5V6.1h4.5V7.2z M16.8,9.4h-4.5V8.3h4.5V9.4z M16.8,11.7
		h-4.5v-1.1h4.5V11.7z M16.8,13.9h-4.5v-1.1h4.5V13.9z"/>
</g>
</svg>
