<?xml version="1.0" encoding="utf-8"?>
<!-- Generator: Adobe Illustrator 20.1.0, SVG Export Plug-In . SVG Version: 6.00 Build 0)  -->
<svg version="1.1" id="Calque_1" xmlns="http://www.w3.org/2000/svg" xmlns:xlink="http://www.w3.org/1999/xlink" x="0px" y="0px"
   viewBox="0 0 17 18.2" style="enable-background:new 0 0 17 18.2;" xml:space="preserve">
<style type="text/css">
  .st0{fill:none;}
</style>
<path class="st0" d="M-1.5-0.9h20v20h-20V-0.9z"/>
<g>
  <path d="M17,16.9c0,0.7-0.6,1.3-1.3,1.3H1.3c-0.7,0-1.3-0.6-1.3-1.3v-13c0-0.7,0.6-1.3,1.3-1.3h1.3v-1C2.6,0.7,3.3,0,4.2,0h0.7
    c0.9-0.1,1.6,0.7,1.6,1.6v1h4v-1c0-0.9,0.7-1.6,1.6-1.6h0.7c0.9,0,1.6,0.7,1.6,1.6v1h1.3c0.7,0,1.3,0.6,1.3,1.3V16.9z M4.3,9.4V6.5
    h-3v2.9H4.3z M4.3,13.3v-3.2h-3v3.3h3V13.3z M4.3,16.9V14h-3v2.9H4.3z M5.2,1.6c0-0.2-0.2-0.3-0.3-0.3H4.3C4.1,1.3,4,1.5,4,1.6v2.9
    c0,0.2,0.2,0.3,0.3,0.3H5c0.2,0,0.3-0.2,0.3-0.3V1.6H5.2z M8.2,9.4V6.5H4.9v2.9H8.2z M8.2,13.3v-3.2H4.9v3.3h3.3V13.3z M8.2,16.9
    V14H4.9v2.9H8.2z M12.1,9.4V6.5H8.8v2.9H12.1z M12.1,13.3v-3.2H8.8v3.3h3.3V13.3z M12.1,16.9V14H8.8v2.9H12.1z M13.1,1.6
    c0-0.2-0.2-0.3-0.3-0.3h-0.7c-0.2,0-0.3,0.2-0.3,0.3v2.9c0,0.2,0.2,0.3,0.3,0.3h0.7c0.2,0,0.3-0.2,0.3-0.3V1.6z M15.7,9.4V6.5h-2.9
    v2.9H15.7z M15.7,13.3v-3.2h-2.9v3.3h2.9V13.3z M15.7,16.9V14h-2.9v2.9H15.7z"/>
</g>
</svg>
