<?xml version="1.0" encoding="utf-8"?>
<!-- Generator: Adobe Illustrator 20.1.0, SVG Export Plug-In . SVG Version: 6.00 Build 0)  -->
<svg version="1.1" id="Calque_1" xmlns="http://www.w3.org/2000/svg" xmlns:xlink="http://www.w3.org/1999/xlink" x="0px" y="0px"
	 viewBox="0 0 15 15" style="enable-background:new 0 0 15 15;" xml:space="preserve">
<style type="text/css">
	.st0{fill:none;}
</style>
<path class="st0" d="M-2.5-2.5h20v20h-20V-2.5z"/>
<g>
	<path d="M7.5,15C3.4,15,0,11.6,0,7.5S3.4,0,7.5,0S15,3.4,15,7.5S11.6,15,7.5,15z M7.5,2.2c-2.9,0-5.3,2.4-5.3,5.3s2.4,5.3,5.3,5.3
		s5.3-2.4,5.3-5.3S10.4,2.2,7.5,2.2z M8.8,8.4c0,0.2-0.1,0.3-0.3,0.3H5.3C5.1,8.7,5,8.6,5,8.4V7.8c0-0.2,0.1-0.3,0.3-0.3h2.2V4.1
		c0-0.2,0.1-0.3,0.3-0.3h0.6c0.2,0,0.3,0.1,0.3,0.3L8.8,8.4L8.8,8.4z"/>
</g>
</svg>
