<?xml version="1.0" encoding="utf-8"?>
<!-- Generator: Adobe Illustrator 20.1.0, SVG Export Plug-In . SVG Version: 6.00 Build 0)  -->
<svg version="1.0" id="Calque_1" xmlns="http://www.w3.org/2000/svg" xmlns:xlink="http://www.w3.org/1999/xlink" x="0px" y="0px"
	 viewBox="0 0 20 20" style="enable-background:new 0 0 20 20;" xml:space="preserve">
<style type="text/css">
	.st0{fill:none;}
</style>
<path class="st0" d="M0,0h20v20H0V0z"/>
<g>
	<path d="M10,17.5c-4.1,0-7.5-3.4-7.5-7.5S5.9,2.5,10,2.5s7.5,3.4,7.5,7.5S14.1,17.5,10,17.5z M10,4.7c-2.9,0-5.3,2.4-5.3,5.3
		s2.4,5.3,5.3,5.3c2.9,0,5.3-2.4,5.3-5.3S12.9,4.7,10,4.7z M11.3,10.9c0,0.2-0.1,0.3-0.3,0.3H7.8c-0.2,0-0.3-0.1-0.3-0.3v-0.6
		c0-0.2,0.1-0.3,0.3-0.3H10V6.6c0-0.2,0.1-0.3,0.3-0.3h0.6c0.2,0,0.3,0.1,0.3,0.3V10.9z"/>
</g>
</svg>
