<?xml version="1.0" encoding="utf-8"?>
<!-- Generator: Adobe Illustrator 20.1.0, SVG Export Plug-In . SVG Version: 6.00 Build 0)  -->
<svg version="1.0" id="Calque_1" xmlns="http://www.w3.org/2000/svg" xmlns:xlink="http://www.w3.org/1999/xlink" x="0px" y="0px"
	 viewBox="0 0 20 20" style="enable-background:new 0 0 20 20;" xml:space="preserve">
<g>
	<path d="M16.7,16c-0.1,0.2-0.3,0.3-0.5,0.3H3.7c-0.2,0-0.4-0.1-0.5-0.3C2.4,14.7,2,13.3,2,11.7c0-4.4,3.6-8,8-8s8,3.6,8,8
		C18,13.3,17.6,14.7,16.7,16z M4.3,10.6c-0.6,0-1.1,0.5-1.1,1.1s0.5,1.1,1.1,1.1s1.1-0.5,1.1-1.1S4.9,10.6,4.3,10.6z M6,6.6
		c-0.6,0-1.1,0.5-1.1,1.1S5.4,8.9,6,8.9s1.1-0.5,1.1-1.1S6.6,6.6,6,6.6z M11.9,8.6c0.1-0.3-0.1-0.6-0.4-0.7
		c-0.3-0.1-0.6,0.1-0.7,0.4l-0.9,3.4c-0.7,0.1-1.3,0.5-1.5,1.3c-0.2,0.9,0.3,1.9,1.2,2.1c0.9,0.2,1.9-0.3,2.1-1.2
		c0.2-0.7-0.1-1.5-0.7-1.9L11.9,8.6z M10,4.9C9.4,4.9,8.9,5.4,8.9,6S9.4,7.1,10,7.1s1.1-0.5,1.1-1.1S10.6,4.9,10,4.9z M14,6.6
		c-0.6,0-1.1,0.5-1.1,1.1s0.5,1.1,1.1,1.1s1.1-0.5,1.1-1.1S14.6,6.6,14,6.6z M15.7,10.6c-0.6,0-1.1,0.5-1.1,1.1s0.5,1.1,1.1,1.1
		s1.1-0.5,1.1-1.1S16.3,10.6,15.7,10.6z"/>
</g>
</svg>
