<?xml version="1.0" encoding="utf-8"?>
<!-- Generator: Adobe Illustrator 20.1.0, SVG Export Plug-In . SVG Version: 6.00 Build 0)  -->
<svg version="1.1" id="Calque_1" xmlns="http://www.w3.org/2000/svg" xmlns:xlink="http://www.w3.org/1999/xlink" x="0px" y="0px"
	 viewBox="0 0 16 12.6" style="enable-background:new 0 0 16 12.6;" xml:space="preserve">
<g>
	<path d="M14.7,12.3c-0.1,0.2-0.3,0.3-0.5,0.3H1.7c-0.2,0-0.4-0.1-0.5-0.3C0.4,11,0,9.6,0,8c0-4.4,3.6-8,8-8s8,3.6,8,8
		C16,9.6,15.6,11,14.7,12.3z M2.3,6.9C1.7,6.9,1.2,7.4,1.2,8s0.5,1.1,1.1,1.1S3.4,8.6,3.4,8S2.9,6.9,2.3,6.9z M4,2.9
		C3.4,2.9,2.9,3.4,2.9,4S3.4,5.2,4,5.2s1.1-0.5,1.1-1.1S4.6,2.9,4,2.9z M9.9,4.9C10,4.6,9.8,4.3,9.5,4.2C9.2,4.1,8.9,4.3,8.8,4.6
		L7.9,8C7.2,8.1,6.6,8.5,6.4,9.3c-0.2,0.9,0.3,1.9,1.2,2.1s1.9-0.3,2.1-1.2C9.9,9.5,9.6,8.7,9,8.3L9.9,4.9z M8,1.2
		c-0.6,0-1.1,0.5-1.1,1.1S7.4,3.4,8,3.4s1.1-0.5,1.1-1.1S8.6,1.2,8,1.2z M12,2.9c-0.6,0-1.1,0.5-1.1,1.1s0.5,1.1,1.1,1.1
		s1.1-0.5,1.1-1.1S12.6,2.9,12,2.9z M13.7,6.9c-0.6,0-1.1,0.5-1.1,1.1s0.5,1.1,1.1,1.1c0.6,0,1.1-0.5,1.1-1.1S14.3,6.9,13.7,6.9z"/>
</g>
</svg>
