<?xml version="1.0" encoding="utf-8"?>
<!-- Generator: Adobe Illustrator 20.1.0, SVG Export Plug-In . SVG Version: 6.00 Build 0)  -->
<svg version="1.0" id="Calque_1" xmlns="http://www.w3.org/2000/svg" xmlns:xlink="http://www.w3.org/1999/xlink" x="0px" y="0px"
	 viewBox="0 0 20 20" style="enable-background:new 0 0 20 20;" xml:space="preserve">
<g>
	<path d="M16,11.3l-5.6,5.4c-0.1,0.1-0.2,0.2-0.4,0.2c-0.1,0-0.3-0.1-0.4-0.2L4,11.3c-0.1-0.1-2-1.9-2-4c0-2.6,1.6-4.2,4.3-4.2
		c1.6,0,3,1.2,3.7,1.9c0.7-0.7,2.2-1.9,3.7-1.9c2.7,0,4.3,1.6,4.3,4.2C18,9.5,16,11.3,16,11.3z M13.7,4.3c-1.3,0-2.8,1.4-3.3,2
		c-0.2,0.3-0.7,0.3-0.9,0c-0.5-0.6-2-2-3.3-2c-1.4,0-3.1,0.5-3.1,3c0,1.6,1.7,3.2,1.7,3.2l5.2,5l5.2-5c0,0,1.7-1.5,1.7-3.2
		C16.9,4.8,15.2,4.3,13.7,4.3z"/>
</g>
</svg>
