<?xml version="1.0" encoding="utf-8"?>
<!-- Generator: Adobe Illustrator 20.1.0, SVG Export Plug-In . SVG Version: 6.00 Build 0)  -->
<svg version="1.1" id="Calque_1" xmlns="http://www.w3.org/2000/svg" xmlns:xlink="http://www.w3.org/1999/xlink" x="0px" y="0px"
	 viewBox="0 0 14 11.2" style="enable-background:new 0 0 14 11.2;" xml:space="preserve">
<g>
	<path d="M11.1,8.9c0,1.2-1,2.3-2.3,2.3H2.3c-1.2,0-2.3-1-2.3-2.3V2.3C0,1.1,1,0,2.3,0h6.5c0.3,0,0.6,0.1,0.9,0.2
		c0.1,0,0.1,0.1,0.1,0.2s0,0.2-0.1,0.2L9.3,1C9.2,1.1,9.1,1.1,9,1.1s-0.2,0-0.4,0H2.3C1.6,1.1,1,1.6,1,2.3v6.5
		c0,0.7,0.6,1.3,1.3,1.3h6.5c0.7,0,1.3-0.6,1.3-1.3v-1c0-0.1,0-0.1,0.1-0.2l0.5-0.5C10.8,7,10.9,7,11,7s0.2,0.1,0.2,0.2v1.7H11.1z
		 M12.6,3.8L7.3,9.1H5V6.8l5.3-5.2L12.6,3.8z M7.9,7.5L6.7,6.3L5.8,7.2v0.4h0.8v0.8H7L7.9,7.5z M10.2,2.7L7.5,5.4
		c-0.1,0.1-0.1,0.2,0,0.3s0.2,0.1,0.3,0L10.5,3c0.1-0.1,0.1-0.2,0-0.3S10.2,2.6,10.2,2.7z M13.1,3.3L10.8,1l0.7-0.7
		c0.3-0.3,0.8-0.3,1.1,0l1.2,1.2c0.3,0.3,0.3,0.8,0,1.1L13.1,3.3z"/>
</g>
</svg>
