<?xml version="1.0" encoding="utf-8"?>
<!-- Generator: Adobe Illustrator 20.1.0, SVG Export Plug-In . SVG Version: 6.00 Build 0)  -->
<svg version="1.0" id="Calque_1" xmlns="http://www.w3.org/2000/svg" xmlns:xlink="http://www.w3.org/1999/xlink" x="0px" y="0px"
	 viewBox="0 0 20 20" style="enable-background:new 0 0 20 20;" xml:space="preserve">
<g>
	<path d="M14.1,13.3c0,1.2-1,2.3-2.3,2.3H5.3c-1.2,0-2.3-1-2.3-2.3V6.7c0-1.2,1-2.3,2.3-2.3h6.5c0.3,0,0.6,0.1,0.9,0.2
		c0.1,0,0.1,0.1,0.1,0.2c0,0.1,0,0.2-0.1,0.2l-0.4,0.4c-0.1,0.1-0.2,0.1-0.3,0.1c-0.1,0-0.2,0-0.4,0H5.3C4.6,5.5,4,6,4,6.7v6.5
		c0,0.7,0.6,1.3,1.3,1.3h6.5c0.7,0,1.3-0.6,1.3-1.3v-1c0-0.1,0-0.1,0.1-0.2l0.5-0.5c0.1-0.1,0.2-0.1,0.3-0.1c0.1,0,0.2,0.1,0.2,0.2
		V13.3z M15.6,8.2l-5.3,5.3H8v-2.3L13.3,6L15.6,8.2z M10.9,11.9l-1.2-1.2l-0.9,0.9V12h0.8v0.8H10L10.9,11.9z M13.2,7.1l-2.7,2.7
		c-0.1,0.1-0.1,0.2,0,0.3c0.1,0.1,0.2,0.1,0.3,0l2.7-2.7c0.1-0.1,0.1-0.2,0-0.3C13.4,7,13.2,7,13.2,7.1z M16.1,7.7l-2.3-2.3l0.7-0.7
		c0.3-0.3,0.8-0.3,1.1,0l1.2,1.2c0.3,0.3,0.3,0.8,0,1.1L16.1,7.7z"/>
</g>
</svg>
