<?xml version="1.0" encoding="utf-8"?>
<!-- Generator: Adobe Illustrator 20.1.0, SVG Export Plug-In . SVG Version: 6.00 Build 0)  -->
<svg version="1.0" id="Calque_1" xmlns="http://www.w3.org/2000/svg" xmlns:xlink="http://www.w3.org/1999/xlink" x="0px" y="0px"
	 viewBox="0 0 20 20" style="enable-background:new 0 0 20 20;" xml:space="preserve">
<path d="M18.8,15.1c-0.2-0.3-1.6-2.4-1.6-2.4V4.6c0-1-0.8-1.8-1.8-1.8H4.6c-1,0-1.8,0.8-1.8,1.8v8.1c0,0-1.4,2-1.6,2.4
	C1,15.4,1,15.6,1,15.9v0.4c0,0.5,0.5,0.9,0.9,0.9h16.2c0.4,0,0.9-0.5,0.9-0.9v-0.4C19,15.6,19,15.4,18.8,15.1z M7.3,15.4l0.5-0.9
	h4.3l0.5,0.9H7.3z M15.4,11.8H4.6V4.6h10.8V11.8z"/>
</svg>
