<?xml version="1.0" encoding="utf-8"?>
<!-- Generator: Adobe Illustrator 20.1.0, SVG Export Plug-In . SVG Version: 6.00 Build 0)  -->
<svg version="1.1" id="Calque_1" xmlns="http://www.w3.org/2000/svg" xmlns:xlink="http://www.w3.org/1999/xlink" x="0px" y="0px"
	 viewBox="0 0 24 24" style="enable-background:new 0 0 24 24;" xml:space="preserve">
<path d="M12,0C5.4,0,0,5.4,0,12s5.4,12,12,12s12-5.4,12-12S18.6,0,12,0z M22.2,12c0,2.3-0.8,4.5-2.1,6.2c-0.4-0.3-0.8-1.1-0.4-1.9
	s0.5-2.7,0.4-3.5c-0.1-0.7-0.5-2.5-1.5-2.5s-1.8-0.4-2.4-1.6c-1.3-2.6,2.4-3.1,1.1-4.5c-0.4-0.4-2.2,1.7-2.5-1.1
	c0-0.2,0.2-0.5,0.4-0.8C19.3,3.7,22.2,7.5,22.2,12z M10.6,1.9c-0.2,0.5-0.9,0.7-1.3,1C8.4,3.7,8.1,3.6,7.6,4.3s-2,1.8-2,2.3
	s0.8,1.2,1.1,1c0.4-0.1,1.4-0.1,2,0.1c0.6,0.2,4.9,0.4,3.5,4.1c-0.4,1.2-2.3,1-2.8,2.9C9.3,15,9.1,16.2,9,16.6
	c0,0.6,0.4,2.9-0.2,2.9c-0.6,0-2.2-2-2.2-2.4s-0.4-1.7-0.4-2.8c0-1.1-1.9-1.1-1.9-2.6c0-1.3,1-2,0.8-2.6s-2-0.7-2.8-0.7
	C3.8,4.9,6.9,2.4,10.6,1.9z M8.8,21.7c0.6-0.3,0.7-0.7,1.2-0.8c0.6,0,1.2-0.2,1.9-0.4c0.6-0.1,1.8-0.8,2.8-0.9c0.8-0.1,2.5,0,3,0.9
	c-1.6,1.1-3.6,1.7-5.6,1.7C10.9,22.2,9.8,22,8.8,21.7z"/>
</svg>
