<?xml version="1.0" encoding="utf-8"?>
<!-- Generator: Adobe Illustrator 20.1.0, SVG Export Plug-In . SVG Version: 6.00 Build 0)  -->
<svg version="1.0" id="Calque_1" xmlns="http://www.w3.org/2000/svg" xmlns:xlink="http://www.w3.org/1999/xlink" x="0px" y="0px"
	 viewBox="0 0 30 30" style="enable-background:new 0 0 30 30;" xml:space="preserve">
<path d="M15,3C8.4,3,3,8.4,3,15s5.4,12,12,12c6.6,0,12-5.4,12-12S21.6,3,15,3z M25.2,15c0,2.3-0.8,4.5-2.1,6.2
	c-0.4-0.3-0.8-1.1-0.4-1.9c0.4-0.8,0.5-2.7,0.4-3.5c-0.1-0.7-0.5-2.5-1.5-2.5c-1,0-1.8-0.4-2.4-1.6c-1.3-2.6,2.4-3.1,1.1-4.5
	c-0.4-0.4-2.2,1.7-2.5-1.1c0-0.2,0.2-0.5,0.4-0.8C22.3,6.7,25.2,10.5,25.2,15z M13.6,4.9c-0.2,0.5-0.9,0.7-1.3,1
	c-0.9,0.8-1.2,0.7-1.7,1.4c-0.5,0.7-2,1.8-2,2.3s0.8,1.2,1.1,1c0.4-0.1,1.4-0.1,2,0.1c0.6,0.2,4.9,0.4,3.5,4.1
	c-0.4,1.2-2.3,1-2.8,2.9c-0.1,0.3-0.3,1.5-0.4,1.9c0,0.6,0.4,2.9-0.2,2.9c-0.6,0-2.2-2-2.2-2.4c0-0.4-0.4-1.7-0.4-2.8
	c0-1.1-1.9-1.1-1.9-2.6c0-1.3,1-2,0.8-2.6c-0.2-0.6-2-0.7-2.8-0.7C6.8,7.9,9.9,5.4,13.6,4.9z M11.8,24.7c0.6-0.3,0.7-0.7,1.2-0.8
	c0.6,0,1.2-0.2,1.9-0.4c0.6-0.1,1.8-0.8,2.8-0.9c0.8-0.1,2.5,0,3,0.9c-1.6,1.1-3.6,1.7-5.6,1.7C13.9,25.2,12.8,25,11.8,24.7z"/>
</svg>
