<?xml version="1.0" encoding="utf-8"?>
<!-- Generator: Adobe Illustrator 20.1.0, SVG Export Plug-In . SVG Version: 6.00 Build 0)  -->
<svg version="1.0" id="Calque_1" xmlns="http://www.w3.org/2000/svg" xmlns:xlink="http://www.w3.org/1999/xlink" x="0px" y="0px"
	 viewBox="0 0 20 20" style="enable-background:new 0 0 20 20;" xml:space="preserve">
<path d="M16.7,16.2c0,0.1-0.2,0.3-0.4,0.4c-0.1,0-4.7,1.4-4.8,1.4c-0.4,0.1-0.7,0-0.9-0.1c-0.3-0.2-3.5-2.4-7.5-2.6
	c-0.4,0-0.2-1.7,1-1.7c0.8,0,3.3,0.6,3.6,0.3c0.2-0.2,0.3-1.6-0.6-4l0,0L5.3,5.1c-0.2-0.5,0-1,0.5-1.2c0.5-0.2,1,0,1.2,0.5
	c0,0,1.5,3.8,1.7,4.2C8.8,9,9,9.2,9.2,9.1C9.4,9,9.4,8.9,9.3,8.5L7.6,3.4c-0.2-0.5,0.1-1,0.6-1.1c0.5-0.2,1,0.1,1.1,0.6l1.7,4.9
	c0.1,0.4,0.3,0.7,0.5,0.5c0.1-0.1,0.1-0.3,0.1-0.5l-1.2-4.6c-0.1-0.5,0.2-1,0.6-1.1c0.5-0.1,1,0.2,1.1,0.6l1.1,4.3
	c0.2,0.6,0.3,0.9,0.5,0.8C14,7.7,14,7.5,13.9,7.3c-0.1-0.4-0.7-3.7-0.7-3.7c-0.1-0.4,0.2-0.9,0.6-0.9c0.4-0.1,0.9,0.2,0.9,0.6l0.8,4
	l0,0c0,0,0,0,0,0l0.5,2.4c0.1,0.5,0.2,0.9,0.4,1.3C17.4,13.5,16.9,15.7,16.7,16.2z"/>
</svg>
