<?xml version="1.0" encoding="utf-8"?>
<!-- Generator: Adobe Illustrator 20.1.0, SVG Export Plug-In . SVG Version: 6.00 Build 0)  -->
<svg version="1.1" id="Calque_1" xmlns="http://www.w3.org/2000/svg" xmlns:xlink="http://www.w3.org/1999/xlink" x="0px" y="0px"
   viewBox="0 0 64.7 76.2" style="enable-background:new 0 0 64.7 76.2;" xml:space="preserve">
<path d="M39.2,4c1.4,0,2.6,0.9,2.9,2.3L47,31.6l4.5-0.7L48.6,8.8c-0.2-1.6,0.9-3.1,2.6-3.3l0.5-0.1c0.1,0,0.3,0,0.4,0
  c1.5,0,2.8,1.1,2.9,2.6L59,40c0,0,0.4,2.8,0.8,6.5l0.2,1.8c0,0.2,0,0.3,0,0.5c0.6,6,1,13.2,0,16l-20.8,7.4c-0.2,0.1-0.5,0.1-0.7,0.1
  c-0.5,0-1.1-0.2-1.5-0.6c-2.5-2.3-10.8-8.5-31.3-11.3c-0.9-0.1-1.7-0.8-1.8-1.7c-0.2-1.7,0-4.2,3.2-4.4c0.3,0,0.5,0,0.8,0
  c4.2,0,10.7,2.4,13.7,2.4c0.6,0,1.1-0.1,1.4-0.3c1.9-1.4,2.9-11.6,0.6-18.7L12.7,18.4c-0.8-1.4-0.3-3.2,1.1-4.1l0.4-0.2
  c0.5-0.3,1-0.4,1.5-0.4c1,0,2,0.5,2.6,1.5l11.5,21.3l3-1.2l-9.3-24.5c-0.6-1.5,0.2-3.3,1.7-3.8l0.4-0.2c0.4-0.1,0.7-0.2,1.1-0.2
  c1.2,0,2.3,0.7,2.8,1.9l8.4,25.1l3.7-1L35.9,7.7c-0.4-1.6,0.7-3.2,2.3-3.5l0.4-0.1C38.8,4,39,4,39.2,4 M39.2,0c-0.5,0-1,0.1-1.5,0.2
  l-0.4,0.1c-2.6,0.6-4.6,2.5-5.2,5c-1.3-1.6-3.3-2.6-5.4-2.6c-0.9,0-1.7,0.2-2.5,0.5l-0.4,0.2c-3.1,1.2-4.8,4.3-4.4,7.5
  c-1.1-0.7-2.3-1-3.6-1c-1.2,0-2.4,0.3-3.5,0.9l-0.4,0.2c-3.3,1.9-4.5,6.2-2.6,9.5l10.9,18.8c1.3,4.6,1.1,10.5,0.5,13.2
  c-1-0.2-2.4-0.5-3.6-0.8c-2.9-0.7-6.1-1.5-8.9-1.5c-0.4,0-0.8,0-1.1,0c-2.9,0.2-4.5,1.6-5.4,2.7c-1.3,1.6-1.8,3.8-1.5,6.3
  c0.4,2.7,2.5,4.8,5.2,5.2c19.8,2.7,27.3,8.5,29.1,10.2c1.1,1.1,2.6,1.7,4.2,1.7c0.7,0,1.4-0.1,2-0.3l20.8-7.4c1.1-0.4,2-1.3,2.4-2.4
  c0.7-1.8,1.4-5.6,0.2-17.5c0-0.2,0-0.5,0-0.8L63.8,46c-0.4-3.5-0.8-6.2-0.8-6.6l-4.1-32C58.4,4,55.5,1.4,52,1.4
  c-0.3,0-0.6,0-0.9,0.1l-0.5,0.1c-2.1,0.3-3.8,1.4-4.9,3C44.7,1.8,42.1,0,39.2,0L39.2,0z"/>
</svg>
