<?xml version="1.0" encoding="utf-8"?>
<!-- Generator: Adobe Illustrator 20.1.0, SVG Export Plug-In . SVG Version: 6.00 Build 0)  -->
<svg version="1.1" id="Calque_1" xmlns="http://www.w3.org/2000/svg" xmlns:xlink="http://www.w3.org/1999/xlink" x="0px" y="0px"
   viewBox="0 0 16 13.8" style="enable-background:new 0 0 16 13.8;" xml:space="preserve">
<g>
  <path d="M14,8.2l-5.6,5.4c-0.1,0.1-0.2,0.2-0.4,0.2c-0.1,0-0.3-0.1-0.4-0.2L2,8.2c-0.1-0.1-2-1.9-2-4C0,1.6,1.6,0,4.3,0
    c1.6,0,3,1.2,3.7,1.9C8.7,1.2,10.2,0,11.7,0C14.4,0,16,1.6,16,4.2C16,6.4,14,8.2,14,8.2z M11.7,1.2c-1.3,0-2.8,1.4-3.3,2
    c-0.2,0.3-0.7,0.3-0.9,0c-0.5-0.6-2-2-3.3-2c-1.4,0-3.1,0.5-3.1,3c0,1.6,1.7,3.2,1.7,3.2l5.2,5l5.2-5c0,0,1.7-1.5,1.7-3.2
    C14.9,1.7,13.2,1.2,11.7,1.2z"/>
</g>
</svg>
