<svg id="Calque_1" data-name="Calque 1" xmlns="http://www.w3.org/2000/svg" viewBox="0 0 21.99 19"><title>cache</title><path d="M11,4a5,5,0,0,1,5,5,4.85,4.85,0,0,1-.36,1.83l2.92,2.92A11.82,11.82,0,0,0,22,9,11.83,11.83,0,0,0,11,1.5a11.65,11.65,0,0,0-4,.7L9.17,4.36A4.85,4.85,0,0,1,11,4ZM1,1.27,3.28,3.55,3.74,4A11.8,11.8,0,0,0,0,9a11.83,11.83,0,0,0,11,7.5,11.78,11.78,0,0,0,4.38-.84l.42.42L18.73,19,20,17.73,2.27,0ZM6.53,6.8,8.08,8.35A2.82,2.82,0,0,0,8,9a3,3,0,0,0,3,3,2.82,2.82,0,0,0,.65-.08l1.55,1.55A5,5,0,0,1,6.53,6.8ZM10.84,6,14,9.17,14,9a3,3,0,0,0-3-3Z"/></svg>