<?xml version="1.0" encoding="utf-8"?>
<!-- Generator: Adobe Illustrator 20.1.0, SVG Export Plug-In . SVG Version: 6.00 Build 0)  -->
<svg version="1.0" id="Calque_1" xmlns="http://www.w3.org/2000/svg" xmlns:xlink="http://www.w3.org/1999/xlink" x="0px" y="0px"
	 viewBox="0 0 30 30" style="enable-background:new 0 0 30 30;" xml:space="preserve">
<g>
	<path d="M26,16.5c-0.1,0.1-0.2,0.1-0.3,0.2c0,0,0,0,0,0c-0.1,0-0.2,0-0.3-0.1L15,8L4.7,16.6c-0.1,0.1-0.2,0.1-0.4,0.1
		c-0.1,0-0.2-0.1-0.3-0.2l-0.9-1.1c-0.2-0.2-0.1-0.5,0.1-0.7l10.7-8.9c0.6-0.5,1.6-0.5,2.3,0l3.6,3V6c0-0.3,0.2-0.5,0.5-0.5h2.9
		c0.3,0,0.5,0.2,0.5,0.5V12l3.3,2.7c0.2,0.2,0.2,0.5,0.1,0.7L26,16.5z M23.6,23.6c0,0.5-0.4,1-1,1h-5.7v-5.7h-3.8v5.7H7.4
		c-0.5,0-1-0.4-1-1v-7.1c0,0,0-0.1,0-0.1L15,9.3l8.6,7.1c0,0,0,0.1,0,0.1V23.6z"/>
</g>
</svg>
