<?xml version="1.0" encoding="utf-8"?>
<!-- Generator: Adobe Illustrator 20.1.0, SVG Export Plug-In . SVG Version: 6.00 Build 0)  -->
<svg version="1.1" id="Calque_1" xmlns="http://www.w3.org/2000/svg" xmlns:xlink="http://www.w3.org/1999/xlink" x="0px" y="0px"
   viewBox="0 0 24.2 19.2" style="enable-background:new 0 0 24.2 19.2;" xml:space="preserve">
<g>
  <path d="M23,11.1c-0.1,0.1-0.2,0.1-0.3,0.2l0,0c-0.1,0-0.2,0-0.3-0.1L12,2.6L1.7,11.2c-0.1,0.1-0.2,0.1-0.4,0.1
    c-0.1,0-0.2-0.1-0.3-0.2L0.1,10C-0.1,9.8,0,9.5,0.2,9.3l10.7-8.9c0.6-0.5,1.6-0.5,2.3,0l3.6,3V0.6c0-0.3,0.2-0.5,0.5-0.5h2.9
    c0.3,0,0.5,0.2,0.5,0.5v6L24,9.3c0.2,0.2,0.2,0.5,0.1,0.7L23,11.1z M20.6,18.2c0,0.5-0.4,1-1,1h-5.7v-5.7h-3.8v5.7H4.4
    c-0.5,0-1-0.4-1-1v-7.1V11L12,3.9l8.6,7.1v0.1V18.2z"/>
</g>
</svg>
