<?xml version="1.0" encoding="utf-8"?>
<!-- Generator: Adobe Illustrator 20.1.0, SVG Export Plug-In . SVG Version: 6.00 Build 0)  -->
<svg version="1.1" id="Calque_1" xmlns="http://www.w3.org/2000/svg" xmlns:xlink="http://www.w3.org/1999/xlink" x="0px" y="0px"
	 viewBox="0 0 18 14.4" style="enable-background:new 0 0 18 14.4;" xml:space="preserve">
<path d="M17.8,12.3c-0.2-0.3-1.6-2.4-1.6-2.4V1.8c0-1-0.8-1.8-1.8-1.8H3.6c-1,0-1.8,0.8-1.8,1.8v8.1c0,0-1.4,2-1.6,2.4
	C0,12.6,0,12.8,0,13.1v0.4c0,0.5,0.5,0.9,0.9,0.9h16.2c0.4,0,0.9-0.5,0.9-0.9v-0.4C18,12.8,18,12.6,17.8,12.3z M6.3,12.6l0.5-0.9
	h4.3l0.5,0.9H6.3z M14.4,9H3.6V1.8h10.8V9z"/>
</svg>
