<?xml version="1.0" encoding="utf-8"?>
<!-- Generator: Adobe Illustrator 20.1.0, SVG Export Plug-In . SVG Version: 6.00 Build 0)  -->
<svg version="1.1" id="Calque_1" xmlns="http://www.w3.org/2000/svg" xmlns:xlink="http://www.w3.org/1999/xlink" x="0px" y="0px"
	 viewBox="0 0 78.5 62.9" style="enable-background:new 0 0 78.5 62.9;" xml:space="preserve">
<path d="M77.6,5.8C77,5.4,62.4-3.5,37.4,1.5C23.6,4.3,12.7,12.3,8.5,23c-2.8,7.1-2.3,14.6,1.4,20.9c-7.6,9.1-9.6,16-9.7,16.5
	c-0.3,1.1,0.3,2.2,1.4,2.4c0.2,0,0.4,0.1,0.5,0.1c0.9,0,1.7-0.6,1.9-1.5c0-0.1,1.7-6,8.3-14.1c0.1-0.1,0.2-0.2,0.3-0.3
	c2.8,2,10.3,6.7,19.8,6.7c4.3,0,8.9-1,13.6-3.5c10.8-5.9,14.4-14.2,17.9-22.2c3.1-7.1,6-13.8,13.8-18.7c0.6-0.4,0.9-1,0.9-1.7
	S78.1,6.1,77.6,5.8z M60.1,26.3c-3.4,7.8-6.6,15.1-16.2,20.3c-13.1,7.2-25.1,0.1-28.9-2.6c6.6-7.3,17.8-16.6,35.8-25
	c1-0.5,1.4-1.7,1-2.7c-0.5-1-1.7-1.4-2.7-1C31.5,23.6,20,32.8,12.6,40.7c-2.5-5-2.7-10.7-0.5-16.2c3.8-9.4,13.5-16.5,26-19
	C55.4,2,67.4,5.6,72.6,7.8C65.9,13.2,63,19.8,60.1,26.3z"/>
</svg>
