<?xml version="1.0" encoding="utf-8"?>
<!-- Generator: Adobe Illustrator 20.1.0, SVG Export Plug-In . SVG Version: 6.00 Build 0)  -->
<svg version="1.1" id="Calque_1" xmlns="http://www.w3.org/2000/svg" xmlns:xlink="http://www.w3.org/1999/xlink" x="0px" y="0px"
	 viewBox="0 0 24.1 24" style="enable-background:new 0 0 24.1 24;" xml:space="preserve">
<path d="M0,2.7v18.7C0,22.8,1.2,24,2.7,24h18.7c1.5,0,2.7-1.2,2.7-2.7V2.7C24,1.2,22.8,0,21.3,0H2.7C1.2,0,0,1.2,0,2.7z M16,8
	c0,2.2-1.8,4-4,4s-4-1.8-4-4s1.8-4,4-4S16,5.8,16,8z M4,18.7c0-2.7,5.3-4.1,8-4.1s8,1.5,8,4.1V20H4V18.7z"/>
</svg>
