<?xml version="1.0" encoding="utf-8"?>
<!-- Generator: Adobe Illustrator 20.1.0, SVG Export Plug-In . SVG Version: 6.00 Build 0)  -->
<svg version="1.0" id="Calque_1" xmlns="http://www.w3.org/2000/svg" xmlns:xlink="http://www.w3.org/1999/xlink" x="0px" y="0px"
	 viewBox="0 0 30 30" style="enable-background:new 0 0 30 30;" xml:space="preserve">
<path d="M3,5.7v18.7C3,25.8,4.2,27,5.7,27h18.7c1.5,0,2.7-1.2,2.7-2.7V5.7C27,4.2,25.8,3,24.3,3H5.7C4.2,3,3,4.2,3,5.7z M19,11
	c0,2.2-1.8,4-4,4s-4-1.8-4-4s1.8-4,4-4S19,8.8,19,11z M7,21.7c0-2.7,5.3-4.1,8-4.1s8,1.5,8,4.1V23H7V21.7z"/>
</svg>
