<?xml version="1.0" encoding="utf-8"?>
<!-- Generator: Adobe Illustrator 20.1.0, SVG Export Plug-In . SVG Version: 6.00 Build 0)  -->
<svg version="1.1" id="Calque_1" xmlns="http://www.w3.org/2000/svg" xmlns:xlink="http://www.w3.org/1999/xlink" x="0px" y="0px"
   viewBox="0 0 12.1 12" style="enable-background:new 0 0 12.1 12;" xml:space="preserve">
<g>
  <path d="M11.1,12c-0.2,0-0.5-0.1-0.6-0.3L8,9.3c-0.8,0.6-1.9,0.9-2.9,0.9C2.3,10.2,0,7.9,0,5.1S2.3,0,5.1,0s5.1,2.3,5.1,5.1
    c0,1-0.3,2-0.9,2.9l2.5,2.5c0.2,0.2,0.3,0.4,0.3,0.6C12,11.6,11.6,12,11.1,12z M5.1,1.8C3.3,1.8,1.9,3.2,1.9,5s1.4,3.2,3.2,3.2
    S8.3,6.8,8.3,5S6.9,1.8,5.1,1.8z"/>
</g>
</svg>
