<?xml version="1.0" encoding="utf-8"?>
<!-- Generator: Adobe Illustrator 20.1.0, SVG Export Plug-In . SVG Version: 6.00 Build 0)  -->
<svg version="1.0" id="Calque_1" xmlns="http://www.w3.org/2000/svg" xmlns:xlink="http://www.w3.org/1999/xlink" x="0px" y="0px"
	 viewBox="0 0 20 20" style="enable-background:new 0 0 20 20;" xml:space="preserve">
<g>
	<path d="M15.1,16c-0.2,0-0.5-0.1-0.6-0.3L12,13.3c-0.8,0.6-1.9,0.9-2.9,0.9C6.3,14.2,4,11.9,4,9.1S6.3,4,9.1,4
		c2.8,0,5.1,2.3,5.1,5.1c0,1-0.3,2-0.9,2.9l2.5,2.5c0.2,0.2,0.3,0.4,0.3,0.6C16,15.6,15.6,16,15.1,16z M9.1,5.8
		c-1.8,0-3.2,1.4-3.2,3.2s1.4,3.2,3.2,3.2c1.8,0,3.2-1.4,3.2-3.2S10.9,5.8,9.1,5.8z"/>
</g>
</svg>
