<?xml version="1.0" encoding="utf-8"?>
<!-- Generator: Adobe Illustrator 20.1.0, SVG Export Plug-In . SVG Version: 6.00 Build 0)  -->
<svg version="1.1" id="Calque_1" xmlns="http://www.w3.org/2000/svg" xmlns:xlink="http://www.w3.org/1999/xlink" x="0px" y="0px"
   viewBox="0 0 18 12.4" style="enable-background:new 0 0 18 12.4;" xml:space="preserve">
<style type="text/css">
  .st0{fill:none;}
</style>
<path class="st0" d="M-1-3.8h20v20H-1V-3.8z"/>
<g>
  <path d="M18,10.7c0,0.9-0.8,1.7-1.7,1.7H1.7c-0.9,0-1.7-0.8-1.7-1.7V1.1h2.2V0H18V10.7z M2.2,2.3H1.1v8.4c0,0.3,0.3,0.6,0.6,0.6
    s0.6-0.3,0.6-0.6L2.2,2.3L2.2,2.3z M16.9,1.1H3.4v9.6c0,0.2,0,0.4-0.1,0.6h13c0.3,0,0.6-0.3,0.6-0.6V1.1z M10.1,7.9H4.5V2.3h5.6
    V7.9z M10.1,10.1H4.5V9h5.6V10.1z M5.6,3.4v3.4H9V3.4H5.6z M15.8,3.4h-4.5V2.3h4.5V3.4z M15.8,5.6h-4.5V4.5h4.5V5.6z M15.8,7.9
    h-4.5V6.8h4.5V7.9z M15.8,10.1h-4.5V9h4.5V10.1z"/>
</g>
</svg>
