<svg xmlns="http://www.w3.org/2000/svg" viewBox="0 0 17 18.2">
  <path id="path9" d="M17 16.9c0 .7-.6 1.3-1.3 1.3H1.3c-.7 0-1.3-.6-1.3-1.3v-13c0-.7.6-1.3 1.3-1.3h1.3v-1C2.6.7 3.3 0 4.2 0h.7c.9-.1 1.6.7 1.6 1.6v1h4v-1c0-.9.7-1.6 1.6-1.6h.7c.9 0 1.6.7 1.6 1.6v1h1.3c.7 0 1.3.6 1.3 1.3v13zM4.3 9.4V6.5h-3v2.9h3zm0 3.9v-3.2h-3v3.3h3v-.1zm0 3.6V14h-3v2.9h3zm.9-15.3c0-.2-.2-.3-.3-.3h-.6c-.2 0-.3.2-.3.3v2.9c0 .2.2.3.3.3H5c.2 0 .3-.2.3-.3V1.6h-.1zm3 7.8V6.5H4.9v2.9h3.3zm0 3.9v-3.2H4.9v3.3h3.3v-.1zm0 3.6V14H4.9v2.9h3.3zm3.9-7.5V6.5H8.8v2.9h3.3zm0 3.9v-3.2H8.8v3.3h3.3v-.1zm0 3.6V14H8.8v2.9h3.3zm1-15.3c0-.2-.2-.3-.3-.3h-.7c-.2 0-.3.2-.3.3v2.9c0 .2.2.3.3.3h.7c.2 0 .3-.2.3-.3V1.6zm2.6 7.8V6.5h-2.9v2.9h2.9zm0 3.9v-3.2h-2.9v3.3h2.9v-.1zm0 3.6V14h-2.9v2.9h2.9z"/>
</svg>
