<?xml version="1.0" encoding="utf-8"?>
<!-- Generator: Adobe Illustrator 20.1.0, SVG Export Plug-In . SVG Version: 6.00 Build 0)  -->
<svg version="1.0" id="Calque_1" xmlns="http://www.w3.org/2000/svg" xmlns:xlink="http://www.w3.org/1999/xlink" x="0px" y="0px"
	 viewBox="0 0 15 15" style="enable-background:new 0 0 15 15;" xml:space="preserve">
<g>
	<path d="M12.6,5.1v7.7c0,0.4-0.3,0.6-0.6,0.6H3c-0.4,0-0.6-0.3-0.6-0.6V2.1c0-0.4,0.3-0.6,0.6-0.6h6c0.4,0,0.9,0.2,1.1,0.5L12.2,4
		C12.4,4.3,12.6,4.8,12.6,5.1z M11.8,5.8H9c-0.4,0-0.6-0.3-0.6-0.6V2.4H3.2v10.3h8.6V5.8z M8.9,9c0.3,0,0.5,0,0.8,0
		c0.4,0,1,0.1,1.2,0.3c0,0.1,0.1,0.2,0,0.3c0,0,0,0,0,0v0c0,0.1-0.1,0.3-0.5,0.3C10,10,9.3,9.8,8.8,9.5C7.8,9.6,6.8,9.8,6.1,10
		c-0.7,1.2-1.2,1.8-1.6,1.8c-0.1,0-0.1,0-0.2,0l-0.2-0.1c0,0,0,0,0,0c0,0-0.1-0.1,0-0.2c0.1-0.3,0.4-0.8,1.3-1.3c0.1,0,0.1,0,0.2,0
		c0,0,0,0,0,0C5.7,9.9,6,9.4,6.2,8.9c0.3-0.6,0.5-1.2,0.7-1.8C6.7,6.4,6.6,5.6,6.8,5.2C6.8,5,6.9,4.9,7,4.9h0.1h0
		c0.1,0,0.2,0,0.2,0.1c0.1,0.1,0.1,0.2,0.1,0.5c0,0,0,0,0,0.1c0,0,0,0,0,0.1c0,0.1,0,0.1,0,0.2c0,0.4,0,0.8-0.1,1.3
		c0.2,0.7,0.6,1.3,1,1.6C8.5,8.8,8.7,8.9,8.9,9z M5.4,10.4c-0.5,0.4-0.8,0.8-0.9,1.1C4.7,11.3,5,11,5.4,10.4z M8.2,9.1
		C8.2,9.1,8.1,9,8,9C7.7,8.7,7.4,8.3,7.2,7.8C7.1,8.2,6.9,8.7,6.6,9.1C6.5,9.3,6.4,9.5,6.3,9.7C6.9,9.5,7.6,9.3,8.2,9.1z M7.1,6.1
		c0-0.1,0-0.2,0-0.3c0-0.1,0-0.2,0-0.3c0,0,0,0,0-0.1c0,0,0,0,0,0c0-0.1,0-0.2-0.1-0.2c0,0,0,0,0,0C7.1,5.5,7.1,5.8,7.1,6.1z
		 M9.2,4.9h2.5c0-0.1-0.1-0.2-0.1-0.3L9.5,2.6c0,0-0.2-0.1-0.3-0.1V4.9z M9.7,9.4c0.3,0.1,0.6,0.2,0.8,0.2c0.1,0,0.1,0,0.1,0
		c0,0,0,0,0,0C10.6,9.5,10.4,9.4,9.7,9.4z"/>
</g>
</svg>
