<?xml version="1.0" encoding="utf-8"?>
<!-- Generator: Adobe Illustrator 20.1.0, SVG Export Plug-In . SVG Version: 6.00 Build 0)  -->
<svg version="1.1" id="Calque_1" xmlns="http://www.w3.org/2000/svg" xmlns:xlink="http://www.w3.org/1999/xlink" x="0px" y="0px"
	 viewBox="0 0 10.2 11.9" style="enable-background:new 0 0 10.2 11.9;" xml:space="preserve">
<g>
	<path d="M10.2,3.6v7.7c0,0.4-0.3,0.6-0.6,0.6h-9c-0.4,0-0.6-0.3-0.6-0.6V0.6C0,0.2,0.3,0,0.6,0h6C7,0,7.5,0.2,7.7,0.5l2.1,2
		C10,2.8,10.2,3.3,10.2,3.6z M9.4,4.3H6.6C6.2,4.3,6,4,6,3.7V0.9H0.8v10.3h8.6V4.3z M6.5,7.5c0.3,0,0.5,0,0.8,0c0.4,0,1,0.1,1.2,0.3
		c0,0.1,0.1,0.2,0,0.3l0,0l0,0c0,0.1-0.1,0.3-0.5,0.3C7.6,8.5,6.9,8.3,6.4,8c-1,0.1-2,0.3-2.7,0.5C3,9.7,2.5,10.3,2.1,10.3
		c-0.1,0-0.1,0-0.2,0l-0.2-0.1l0,0c0,0-0.1-0.1,0-0.2C1.8,9.7,2.1,9.2,3,8.7c0.1,0,0.1,0,0.2,0l0,0c0.1-0.3,0.4-0.8,0.6-1.3
		c0.3-0.6,0.5-1.2,0.7-1.8C4.3,4.9,4.2,4.1,4.4,3.7c0-0.2,0.1-0.3,0.2-0.3h0.1l0,0c0.1,0,0.2,0,0.2,0.1C5,3.6,5,3.7,5,4
		c0,0,0,0,0,0.1c0,0,0,0,0,0.1s0,0.1,0,0.2c0,0.4,0,0.8-0.1,1.3c0.2,0.7,0.6,1.3,1,1.6C6.1,7.3,6.3,7.4,6.5,7.5z M3,8.9
		C2.5,9.3,2.2,9.7,2.1,10C2.3,9.8,2.6,9.5,3,8.9z M5.8,7.6c0,0-0.1-0.1-0.2-0.1C5.3,7.2,5,6.8,4.8,6.3C4.7,6.7,4.5,7.2,4.2,7.6
		C4.1,7.8,4,8,3.9,8.2C4.5,8,5.2,7.8,5.8,7.6z M4.7,4.6c0-0.1,0-0.2,0-0.3c0-0.1,0-0.2,0-0.3c0,0,0,0,0-0.1l0,0c0-0.1,0-0.2-0.1-0.2
		l0,0C4.7,4,4.7,4.3,4.7,4.6z M6.8,3.4h2.5c0-0.1-0.1-0.2-0.1-0.3l-2.1-2c0,0-0.2-0.1-0.3-0.1V3.4z M7.3,7.9C7.6,8,7.9,8.1,8.1,8.1
		c0.1,0,0.1,0,0.1,0l0,0C8.2,8,8,7.9,7.3,7.9z"/>
</g>
</svg>
