<?xml version="1.0" encoding="utf-8"?>
<!-- Generator: Adobe Illustrator 20.1.0, SVG Export Plug-In . SVG Version: 6.00 Build 0)  -->
<svg version="1.0" id="Calque_1" xmlns="http://www.w3.org/2000/svg" xmlns:xlink="http://www.w3.org/1999/xlink" x="0px" y="0px"
   viewBox="0 0 32 32" style="enable-background:new 0 0 32 32;" xml:space="preserve">
<path d="M16,0C7.2,0,0,7.2,0,16s7.2,16,16,16s16-7.2,16-16S24.8,0,16,0z M17.1,19.8c-1-0.1-1.5-0.6-2.3-1.1c-0.4,2.3-1,4.5-2.6,5.7
  c-0.5-3.5,0.7-6.1,1.3-8.9c-1-1.6,0.1-4.9,2.2-4.1c2.5,1-2.2,6,1,6.7c3.3,0.7,4.6-5.7,2.6-7.7c-2.9-3-8.5-0.1-7.9,4.2
  c0.2,1,1.2,1.4,0.4,2.8c-1.9-0.4-2.4-1.9-2.4-3.9c0.1-3.2,2.9-5.5,5.7-5.8c3.5-0.4,6.9,1.3,7.3,4.6C23,16,20.9,20.1,17.1,19.8z"/>
</svg>
