<?xml version="1.0" encoding="utf-8"?>
<!-- Generator: Adobe Illustrator 20.1.0, SVG Export Plug-In . SVG Version: 6.00 Build 0)  -->
<svg version="1.0" id="Calque_1" xmlns="http://www.w3.org/2000/svg" xmlns:xlink="http://www.w3.org/1999/xlink" x="0px" y="0px"
   viewBox="0 0 15 15" style="enable-background:new 0 0 15 15;" xml:space="preserve">
<g>
  <path d="M15,8.5c0,0.6-0.5,1-1,1H9.5V14c0,0.6-0.5,1-1,1h-2c-0.6,0-1-0.5-1-1V9.5H1c-0.6,0-1-0.5-1-1v-2c0-0.6,0.5-1,1-1h4.4V1
    c0-0.6,0.5-1,1-1h2c0.6,0,1,0.5,1,1v4.4H14c0.6,0,1,0.5,1,1V8.5z"/>
</g>
</svg>
