<?xml version="1.0" encoding="utf-8"?>
<!-- Generator: Adobe Illustrator 20.1.0, SVG Export Plug-In . SVG Version: 6.00 Build 0)  -->
<svg version="1.0" id="Calque_1" xmlns="http://www.w3.org/2000/svg" xmlns:xlink="http://www.w3.org/1999/xlink" x="0px" y="0px"
	 viewBox="0 0 40 40" style="enable-background:new 0 0 40 40;" xml:space="preserve">
<g>
	<path d="M15.9,26.8c-1.3,0-2.5-0.1-3.7-0.3c-1.8,1.3-3.8,2.2-5.9,2.7c-0.6,0.1-1.2,0.3-1.8,0.3c0,0,0,0-0.1,0
		c-0.3,0-0.6-0.3-0.7-0.6c-0.1-0.4,0.2-0.7,0.4-0.9C5,27,5.9,26.2,6.6,24.4c-3.4-2-5.6-5.1-5.6-8.5c0-6,6.7-10.9,14.9-10.9
		s14.9,4.9,14.9,10.9S24.2,26.8,15.9,26.8z M33.4,29.9c0.7,1.8,1.7,2.6,2.5,3.5c0.2,0.3,0.5,0.5,0.4,0.9c-0.1,0.4-0.4,0.7-0.7,0.6
		c-0.6-0.1-1.3-0.2-1.8-0.3c-2.1-0.6-4.1-1.5-5.9-2.7c-1.2,0.2-2.4,0.3-3.7,0.3c-3.8,0-7.4-1.1-10-2.8c0.6,0,1.3,0.1,1.9,0.1
		c4.6,0,8.9-1.3,12.1-3.7c3.5-2.6,5.5-6.1,5.5-9.9c0-1.1-0.2-2.2-0.5-3.2c3.6,2,5.9,5.1,5.9,8.7C39,24.8,36.8,27.9,33.4,29.9z"/>
</g>
</svg>
