<?xml version="1.0" encoding="utf-8"?>
<!-- Generator: Adobe Illustrator 20.1.0, SVG Export Plug-In . SVG Version: 6.00 Build 0)  -->
<svg version="1.0" id="Calque_1" xmlns="http://www.w3.org/2000/svg" xmlns:xlink="http://www.w3.org/1999/xlink" x="0px" y="0px"
   viewBox="0 0 18 18" style="enable-background:new 0 0 18 18;" xml:space="preserve">
<g>
  <path d="M18,14.6c0,1.9-1.5,3.4-3.4,3.4H3.4C1.5,18,0,16.5,0,14.6V3.4C0,1.5,1.5,0,3.4,0h11.2C16.5,0,18,1.5,18,3.4V14.6z M3.4,3.4
    c-0.1,0-0.2,0-0.3,0.1C3,3.6,3,3.7,3,3.8v1.5c0,0.2,0.2,0.4,0.4,0.4c4.9,0.2,8.8,4.1,9,9c0,0.2,0.2,0.4,0.4,0.4h1.5
    c0.1,0,0.2,0,0.3-0.1c0.1-0.1,0.1-0.2,0.1-0.3C14.4,8.5,9.5,3.6,3.4,3.4z M3.4,7.9c-0.1,0-0.2,0-0.3,0.1C3,8.1,3,8.2,3,8.3v1.5
    c0,0.2,0.2,0.4,0.4,0.4c2.4,0.2,4.3,2.1,4.5,4.5C7.9,14.8,8,15,8.2,15h1.5c0.1,0,0.2,0,0.3-0.1c0.1-0.1,0.1-0.2,0.1-0.3
    C9.9,11,7,8.1,3.4,7.9z M4.5,12C3.7,12,3,12.7,3,13.5S3.7,15,4.5,15S6,14.3,6,13.5S5.3,12,4.5,12z"/>
</g>
</svg>
