<?xml version="1.0" encoding="utf-8"?>
<!-- Generator: Adobe Illustrator 20.1.0, SVG Export Plug-In . SVG Version: 6.00 Build 0)  -->
<svg version="1.0" id="Calque_1" xmlns="http://www.w3.org/2000/svg" xmlns:xlink="http://www.w3.org/1999/xlink" x="0px" y="0px"
	 viewBox="0 0 20 20" style="enable-background:new 0 0 20 20;" xml:space="preserve">
<style type="text/css">
	.st0{fill:none;}
</style>
<path d="M14.3,12.6h-0.9l-0.3-0.3c1.1-1.3,1.8-3,1.8-4.8c0-4.1-3.3-7.4-7.4-7.4S0,3.3,0,7.4s3.3,7.4,7.4,7.4c1.8,0,3.5-0.7,4.8-1.8
	l0.3,0.3v0.9l5.7,5.7l1.7-1.7L14.3,12.6z M7.4,12.6c-2.8,0-5.1-2.3-5.1-5.1s2.3-5.1,5.1-5.1s5.1,2.3,5.1,5.1S10.3,12.6,7.4,12.6z"/>
<path class="st0" d="M0,0h20v20H0V0z"/>
</svg>
