<?xml version="1.0" encoding="utf-8"?>
<!-- Generator: Adobe Illustrator 20.1.0, SVG Export Plug-In . SVG Version: 6.00 Build 0)  -->
<svg version="1.0" id="Calque_1" xmlns="http://www.w3.org/2000/svg" xmlns:xlink="http://www.w3.org/1999/xlink" x="0px" y="0px"
	 viewBox="0 0 22 22" style="enable-background:new 0 0 22 22;" xml:space="preserve">
<path d="M22,20.3c-0.5-1.1-2.4-4.7-5.9-5.5c0,0-2.6-0.4-1.8-1.6c0.8-1.2,2.6-3.8,2.9-5.4C17.6,6.1,17,1,16.9,0.4
	c-0.2-0.6-0.3-0.8-2.1,0.4c-1.8,1.2-4.4,3-4.8,4.3C9.6,6.4,8.7,8.7,8.4,9.2c-0.2,0.4-0.9,1.3-1.6-0.4C6,7,4.4,4.7,2.5,4.3
	C1.4,4.1,0.8,4,0.5,4C0.4,4,0.3,4.1,0.2,4.3C0.1,4.8-0.3,6.6,0.5,8.2c1,1.9,2,3.1,2.5,4.8c0.5,1.5,1.3,2.7,3.9,3.4
	c-1.4,2.1-3,3.7-5,4.7l0.6,1.1c2.1-1.1,3.9-2.8,5.4-5c0.1,1.7,1.6,2.2,1.6,2.2c2.1,1,8.6,2.9,12.4,1.4C22,20.6,22.1,20.4,22,20.3z
	 M7.8,17c0-0.1,0.1-0.1,0.1-0.2l-1-0.6c0,0,0,0.1-0.1,0.1L3.7,8.9l4,6c2.2-2.4,4.7-5.9,5-7.7c0,0-0.4,3.8-4,8.6h0l7.4,2.5L7.8,17z"
	/>
</svg>
