<?xml version="1.0" encoding="utf-8"?>
<!-- Generator: Adobe Illustrator 20.1.0, SVG Export Plug-In . SVG Version: 6.00 Build 0)  -->
<svg version="1.0" id="Calque_1" xmlns="http://www.w3.org/2000/svg" xmlns:xlink="http://www.w3.org/1999/xlink" x="0px" y="0px"
   viewBox="0 0 32 32" style="enable-background:new 0 0 32 32;" xml:space="preserve">
<path d="M16,0C7.2,0,0,7.2,0,16s7.2,16,16,16s16-7.2,16-16S24.8,0,16,0z M22.5,13.1c0,0.1,0,0.3,0,0.4c0,4.2-3.2,9-9,9
  c-1.8,0-3.4-0.5-4.8-1.4c0.2,0,0.5,0,0.8,0c1.5,0,2.8-0.5,3.9-1.3c-1.4,0-2.5-0.9-2.9-2.2c0.2,0,0.4,0.1,0.6,0.1
  c0.3,0,0.6,0,0.8-0.1c-1.4-0.3-2.5-1.6-2.5-3.1v0c0.4,0.2,0.9,0.4,1.4,0.4c-0.8-0.6-1.4-1.5-1.4-2.6c0-0.6,0.2-1.1,0.4-1.6
  c1.6,1.9,3.9,3.2,6.5,3.3c-0.1-0.2-0.1-0.5-0.1-0.7c0-1.7,1.4-3.2,3.2-3.2c0.9,0,1.7,0.4,2.3,1c0.7-0.1,1.4-0.4,2-0.8
  c-0.2,0.7-0.7,1.4-1.4,1.7c0.6-0.1,1.2-0.2,1.8-0.5C23.7,12.1,23.1,12.7,22.5,13.1z"/>
</svg>
