<?xml version="1.0" encoding="utf-8"?>
<!-- Generator: Adobe Illustrator 20.1.0, SVG Export Plug-In . SVG Version: 6.00 Build 0)  -->
<svg version="1.1" id="Calque_1" xmlns="http://www.w3.org/2000/svg" xmlns:xlink="http://www.w3.org/1999/xlink" x="0px" y="0px"
	 viewBox="0 0 20.1 16.2" style="enable-background:new 0 0 20.1 16.2;" xml:space="preserve">
<g>
	<path d="M18,4c0,0.2,0,0.4,0,0.5c0,5.4-4.1,11.7-11.7,11.7c-2.3,0-4.5-0.7-6.3-1.8c0.3,0,0.6,0.1,1,0.1c1.9,0,3.7-0.6,5.1-1.8
		c-1.8,0-3.3-1.2-3.8-2.8c0.3,0,0.5,0.1,0.8,0.1c0.4,0,0.7-0.1,1.1-0.1c-1.9-0.4-3.3-2-3.3-4c0,0,0,0,0-0.1C1.5,6,2.1,6.2,2.8,6.2
		C1.7,5.5,1,4.2,1,2.8C1,2,1.2,1.3,1.6,0.7c2,2.5,5.1,4.1,8.5,4.3C9.9,4.7,9.8,4.4,9.8,4.1c0-2.3,1.8-4.1,4.1-4.1
		c1.2,0,2.2,0.5,3,1.3c0.9-0.2,1.8-0.5,2.6-1c-0.3,1-1,1.8-1.8,2.3c0.8-0.1,1.6-0.3,2.4-0.6C19.5,2.7,18.8,3.4,18,4z"/>
</g>
</svg>
