<?xml version="1.0" encoding="utf-8"?>
<!-- Generator: Adobe Illustrator 20.1.0, SVG Export Plug-In . SVG Version: 6.00 Build 0)  -->
<svg version="1.1" id="Calque_1" xmlns="http://www.w3.org/2000/svg" xmlns:xlink="http://www.w3.org/1999/xlink" x="0px" y="0px"
	 viewBox="0 0 16 16" style="enable-background:new 0 0 16 16;" xml:space="preserve">
<path d="M8,0C3.6,0,0,3.6,0,8s3.6,8,8,8s8-3.6,8-8S12.4,0,8,0z M8,2.4c1.3,0,2.4,1.1,2.4,2.4S9.3,7.2,8,7.2S5.6,6.1,5.6,4.8
	S6.7,2.4,8,2.4z M8,13.8c-2,0-3.8-1-4.8-2.6c0-1.6,3.2-2.5,4.8-2.5s4.8,0.9,4.8,2.5C11.8,12.7,10,13.8,8,13.8z"/>
</svg>
